<mxfile host="app.diagrams.net" modified="2020-10-17T23:20:54.623Z" agent="5.0 (Windows NT 10.0; Win64; x64) AppleWebKit/537.36 (KHTML, like Gecko) Chrome/86.0.4240.75 Safari/537.36" etag="48g0EQbnap_TYn5KrBk7" version="13.8.0" type="github">
  <diagram id="oUSPo-S-hMeNsO3R-K_7" name="Page-1">
    <mxGraphModel dx="782" dy="437" grid="1" gridSize="10" guides="1" tooltips="1" connect="1" arrows="1" fold="1" page="1" pageScale="1" pageWidth="850" pageHeight="1100" math="0" shadow="0">
      <root>
        <mxCell id="0" />
        <mxCell id="1" parent="0" />
        <mxCell id="ig0AiqHfNgMoDDJPQplf-1" value="Paquetage&lt;br&gt;Controleur" style="shape=folder;fontStyle=1;spacingTop=10;tabWidth=40;tabHeight=14;tabPosition=left;html=1;" vertex="1" parent="1">
          <mxGeometry x="390" y="240" width="70" height="50" as="geometry" />
        </mxCell>
      </root>
    </mxGraphModel>
  </diagram>
</mxfile>
